<?xml version="1.0" encoding="UTF-8" standalone="no"?>
<!DOCTYPE svg PUBLIC "-//W3C//DTD SVG 1.1//EN"
 "http://www.w3.org/Graphics/SVG/1.1/DTD/svg11.dtd">
<!-- Generated by graphviz version 2.40.1 (20161225.0304)
 -->
<!-- Title: G Pages: 1 -->
<svg width="888pt" height="602pt"
 viewBox="0.00 0.00 888.16 602.00" xmlns="http://www.w3.org/2000/svg" xmlns:xlink="http://www.w3.org/1999/xlink">
<g id="graph0" class="graph" transform="scale(1 1) rotate(0) translate(4 598)">
<title>G</title>
<polygon fill="#ffffff" stroke="transparent" points="-4,4 -4,-598 884.1608,-598 884.1608,4 -4,4"/>
<g id="clust1" class="cluster">
<title>cluster_FirstDataFrame</title>
<polygon fill="#e5e5e5" stroke="#e5e5e5" points="0,-107 0,-550 201.3668,-550 201.3668,-107 0,-107"/>
<text text-anchor="start" x="7.7906" y="-534.4" font-family="monospace" font-weight="bold" font-size="14.00" fill="#000000">      FirstDataFrame      </text>
</g>
<g id="clust2" class="cluster">
<title>cluster_SecondDataFrame</title>
<polygon fill="#e5e5e5" stroke="#e5e5e5" points="328.9394,-227 328.9394,-550 545.3062,-550 545.3062,-227 328.9394,-227"/>
<text text-anchor="start" x="336.4586" y="-534.4" font-family="monospace" font-weight="bold" font-size="14.00" fill="#000000">      SecondDataFrame      </text>
</g>
<g id="clust3" class="cluster">
<title>cluster_Last_DF</title>
<polygon fill="#e5e5e5" stroke="#e5e5e5" points="353.3668,-8 353.3668,-151 519.8788,-151 519.8788,-8 353.3668,-8"/>
<text text-anchor="start" x="379.4846" y="-135.4" font-family="monospace" font-weight="bold" font-size="14.00" fill="#000000">    Last_DF    </text>
</g>
<g id="clust4" class="cluster">
<title>cluster_SimpleDF_1_csv</title>
<polygon fill="#e5e5e5" stroke="#e5e5e5" points="672.8788,-20 672.8788,-283 880.1608,-283 880.1608,-20 672.8788,-20"/>
<text text-anchor="start" x="680.6975" y="-267.4" font-family="monospace" font-weight="bold" font-size="14.00" fill="#000000">      SimpleDF_1.csv      </text>
</g>
<g id="clust5" class="cluster">
<title>cluster_SimpleDF_2_tsv</title>
<polygon fill="#e5e5e5" stroke="#e5e5e5" points="674.8364,-383 674.8364,-586 879.2032,-586 879.2032,-383 674.8364,-383"/>
<text text-anchor="start" x="682.3595" y="-570.4" font-family="monospace" font-weight="bold" font-size="14.00" fill="#000000">      SimpleDF_2.tsv      </text>
</g>
<!-- FirstDataFrame__@__RowNum -->
<g id="node1" class="node">
<title>FirstDataFrame__@__RowNum</title>
<polygon fill="#9ac0cd" stroke="#9ac0cd" points="150.1248,-456.6019 51.242,-456.6019 51.242,-415.3981 150.1248,-415.3981 150.1248,-456.6019"/>
<text text-anchor="middle" x="100.6834" y="-440.2" font-family="monospace" font-size="14.00" fill="#000000"> &#160;&#160;&#160;RowNum &#160;&#160;&#160;</text>
<text text-anchor="middle" x="100.6834" y="-423.4" font-family="monospace" font-size="14.00" fill="#000000"> &#160;&#160;&#160;integer &#160;&#160;&#160;</text>
</g>
<!-- SecondDataFrame__@__RowNum -->
<g id="node8" class="node">
<title>SecondDataFrame__@__RowNum</title>
<polygon fill="#9ac0cd" stroke="#9ac0cd" points="486.0642,-456.6019 387.1814,-456.6019 387.1814,-415.3981 486.0642,-415.3981 486.0642,-456.6019"/>
<text text-anchor="middle" x="436.6228" y="-440.2" font-family="monospace" font-size="14.00" fill="#000000"> &#160;&#160;&#160;RowNum &#160;&#160;&#160;</text>
<text text-anchor="middle" x="436.6228" y="-423.4" font-family="monospace" font-size="14.00" fill="#000000"> &#160;&#160;&#160;integer &#160;&#160;&#160;</text>
</g>
<!-- FirstDataFrame__@__RowNum&#45;&#45;SecondDataFrame__@__RowNum -->
<g id="edge8" class="edge">
<title>FirstDataFrame__@__RowNum&#45;&#45;SecondDataFrame__@__RowNum</title>
<path fill="none" stroke="#000000" stroke-width="2" d="M150.2524,-436C213.9498,-436 323.8671,-436 387.3977,-436"/>
</g>
<!-- FirstDataFrame__@__Id1 -->
<g id="node2" class="node">
<title>FirstDataFrame__@__Id1</title>
<polygon fill="#9ac0cd" stroke="#9ac0cd" points="169.086,-396.6019 32.2808,-396.6019 32.2808,-355.3981 169.086,-355.3981 169.086,-396.6019"/>
<text text-anchor="middle" x="100.6834" y="-380.2" font-family="monospace" font-size="14.00" fill="#000000"> &#160;&#160;Id1 &#160;&#160;</text>
<text text-anchor="middle" x="100.6834" y="-363.4" font-family="monospace" font-size="14.00" fill="#000000"> &#160;&#160;&#160;&#160;&#160;integer; factor &#160;&#160;&#160;&#160;&#160;</text>
</g>
<!-- SecondDataFrame__@__Id1 -->
<g id="node10" class="node">
<title>SecondDataFrame__@__Id1</title>
<polygon fill="#9ac0cd" stroke="#9ac0cd" points="487.908,-396.6019 385.3376,-396.6019 385.3376,-355.3981 487.908,-355.3981 487.908,-396.6019"/>
<text text-anchor="middle" x="436.6228" y="-380.2" font-family="monospace" font-size="14.00" fill="#000000"> &#160;&#160;Id1 &#160;&#160;</text>
<text text-anchor="middle" x="436.6228" y="-363.4" font-family="monospace" font-size="14.00" fill="#000000"> &#160;&#160;&#160;&#160;character &#160;&#160;&#160;&#160;</text>
</g>
<!-- FirstDataFrame__@__Id1&#45;&#45;SecondDataFrame__@__Id1 -->
<g id="edge2" class="edge">
<title>FirstDataFrame__@__Id1&#45;&#45;SecondDataFrame__@__Id1</title>
<path fill="none" stroke="#ff0000" stroke-width="7" stroke-dasharray="1,5" d="M169.4764,-376C233.591,-376 327.7409,-376 385.4552,-376"/>
</g>
<!-- SimpleDF_1.csv__@__Id1 -->
<g id="node15" class="node">
<title>SimpleDF_1.csv__@__Id1</title>
<polygon fill="#9ac0cd" stroke="#9ac0cd" points="827.805,-249.6019 725.2346,-249.6019 725.2346,-208.3981 827.805,-208.3981 827.805,-249.6019"/>
<text text-anchor="middle" x="776.5198" y="-233.2" font-family="monospace" font-size="14.00" fill="#000000"> &#160;&#160;Id1 &#160;&#160;</text>
<text text-anchor="middle" x="776.5198" y="-216.4" font-family="monospace" font-size="14.00" fill="#000000"> &#160;&#160;&#160;&#160;character &#160;&#160;&#160;&#160;</text>
</g>
<!-- FirstDataFrame__@__Id1&#45;&#45;SimpleDF_1.csv__@__Id1 -->
<g id="edge3" class="edge">
<title>FirstDataFrame__@__Id1&#45;&#45;SimpleDF_1.csv__@__Id1</title>
<path fill="none" stroke="#ff0000" stroke-width="7" stroke-dasharray="1,5" d="M169.154,-360.4337C180.3061,-356.5513 191.4431,-351.7928 201.3668,-346 269.3867,-306.2948 255.9023,-252.4752 328.9394,-223 463.3402,-168.7606 639.4614,-196.7341 725.1839,-215.9205"/>
</g>
<!-- FirstDataFrame__@__Id2 -->
<g id="node3" class="node">
<title>FirstDataFrame__@__Id2</title>
<polygon fill="#9ac0cd" stroke="#9ac0cd" points="151.9686,-516.6019 49.3982,-516.6019 49.3982,-475.3981 151.9686,-475.3981 151.9686,-516.6019"/>
<text text-anchor="middle" x="100.6834" y="-500.2" font-family="monospace" font-size="14.00" fill="#000000"> &#160;&#160;Id2 &#160;&#160;</text>
<text text-anchor="middle" x="100.6834" y="-483.4" font-family="monospace" font-size="14.00" fill="#000000"> &#160;&#160;&#160;&#160;character &#160;&#160;&#160;&#160;</text>
</g>
<!-- SecondDataFrame__@__Id2 -->
<g id="node9" class="node">
<title>SecondDataFrame__@__Id2</title>
<polygon fill="#9ac0cd" stroke="#9ac0cd" points="487.908,-516.6019 385.3376,-516.6019 385.3376,-475.3981 487.908,-475.3981 487.908,-516.6019"/>
<text text-anchor="middle" x="436.6228" y="-500.2" font-family="monospace" font-size="14.00" fill="#000000"> &#160;&#160;Id2 &#160;&#160;</text>
<text text-anchor="middle" x="436.6228" y="-483.4" font-family="monospace" font-size="14.00" fill="#000000"> &#160;&#160;&#160;&#160;character &#160;&#160;&#160;&#160;</text>
</g>
<!-- FirstDataFrame__@__Id2&#45;&#45;SecondDataFrame__@__Id2 -->
<g id="edge5" class="edge">
<title>FirstDataFrame__@__Id2&#45;&#45;SecondDataFrame__@__Id2</title>
<path fill="none" stroke="#000000" stroke-width="2" d="M152.0711,-496C215.299,-496 322.0156,-496 385.2409,-496"/>
</g>
<!-- SimpleDF_2.tsv__@__Id2 -->
<g id="node19" class="node">
<title>SimpleDF_2.tsv__@__Id2</title>
<polygon fill="#9ac0cd" stroke="#9ac0cd" points="827.805,-552.6019 725.2346,-552.6019 725.2346,-511.3981 827.805,-511.3981 827.805,-552.6019"/>
<text text-anchor="middle" x="776.5198" y="-536.2" font-family="monospace" font-size="14.00" fill="#000000"> &#160;&#160;Id2 &#160;&#160;</text>
<text text-anchor="middle" x="776.5198" y="-519.4" font-family="monospace" font-size="14.00" fill="#000000"> &#160;&#160;&#160;&#160;character &#160;&#160;&#160;&#160;</text>
</g>
<!-- FirstDataFrame__@__Id2&#45;&#45;SimpleDF_2.tsv__@__Id2 -->
<g id="edge6" class="edge">
<title>FirstDataFrame__@__Id2&#45;&#45;SimpleDF_2.tsv__@__Id2</title>
<path fill="none" stroke="#000000" stroke-width="2" d="M152.1049,-512.9812C197.9116,-527.1613 267.0686,-546.2622 328.9394,-554 471.7545,-571.8609 641.898,-552.4181 725.2892,-540.2596"/>
</g>
<!-- FirstDataFrame__@__Share -->
<g id="node4" class="node">
<title>FirstDataFrame__@__Share</title>
<polygon fill="#9ac0cd" stroke="#9ac0cd" points="175.5507,-336.6019 25.8161,-336.6019 25.8161,-295.3981 175.5507,-295.3981 175.5507,-336.6019"/>
<text text-anchor="middle" x="100.6834" y="-320.2" font-family="monospace" font-size="14.00" fill="#000000"> &#160;&#160;&#160;Share &#160;&#160;&#160;</text>
<text text-anchor="middle" x="100.6834" y="-303.4" font-family="monospace" font-size="14.00" fill="#000000"> &#160;&#160;&#160;&#160;&#160;double; numeric &#160;&#160;&#160;&#160;&#160;</text>
</g>
<!-- SecondDataFrame__@__Share -->
<g id="node11" class="node">
<title>SecondDataFrame__@__Share</title>
<polygon fill="#9ac0cd" stroke="#9ac0cd" points="477.9939,-336.6019 395.2517,-336.6019 395.2517,-295.3981 477.9939,-295.3981 477.9939,-336.6019"/>
<text text-anchor="middle" x="436.6228" y="-320.2" font-family="monospace" font-size="14.00" fill="#000000"> &#160;&#160;&#160;Share &#160;&#160;&#160;</text>
<text text-anchor="middle" x="436.6228" y="-303.4" font-family="monospace" font-size="14.00" fill="#000000"> &#160;&#160;&#160;integer &#160;&#160;&#160;</text>
</g>
<!-- FirstDataFrame__@__Share&#45;&#45;SecondDataFrame__@__Share -->
<g id="edge9" class="edge">
<title>FirstDataFrame__@__Share&#45;&#45;SecondDataFrame__@__Share</title>
<path fill="none" stroke="#000000" stroke-width="3" stroke-dasharray="5,2" d="M175.6566,-316C243.3385,-316 340.4362,-316 395.105,-316"/>
</g>
<!-- SimpleDF_1.csv__@__Share -->
<g id="node17" class="node">
<title>SimpleDF_1.csv__@__Share</title>
<polygon fill="#9ac0cd" stroke="#9ac0cd" points="851.3871,-189.6019 701.6525,-189.6019 701.6525,-148.3981 851.3871,-148.3981 851.3871,-189.6019"/>
<text text-anchor="middle" x="776.5198" y="-173.2" font-family="monospace" font-size="14.00" fill="#000000"> &#160;&#160;&#160;Share &#160;&#160;&#160;</text>
<text text-anchor="middle" x="776.5198" y="-156.4" font-family="monospace" font-size="14.00" fill="#000000"> &#160;&#160;&#160;&#160;&#160;double; numeric &#160;&#160;&#160;&#160;&#160;</text>
</g>
<!-- FirstDataFrame__@__Share&#45;&#45;SimpleDF_1.csv__@__Share -->
<g id="edge10" class="edge">
<title>FirstDataFrame__@__Share&#45;&#45;SimpleDF_1.csv__@__Share</title>
<path fill="none" stroke="#000000" stroke-width="2" d="M175.5689,-297.0458C184.456,-293.8216 193.2456,-290.149 201.3668,-286 265.0364,-253.4724 261.7458,-212.4311 328.9394,-188 395.2716,-163.882 592.5271,-164.4121 701.7182,-166.7631"/>
</g>
<!-- FirstDataFrame__@__AnotherVarX -->
<g id="node5" class="node">
<title>FirstDataFrame__@__AnotherVarX</title>
<polygon fill="#ffffff" stroke="#ffffff" points="175.5507,-276.6019 25.8161,-276.6019 25.8161,-235.3981 175.5507,-235.3981 175.5507,-276.6019"/>
<text text-anchor="middle" x="100.6834" y="-260.2" font-family="monospace" font-size="14.00" fill="#000000"> &#160;&#160;&#160;&#160;AnotherVarX &#160;&#160;&#160;&#160;</text>
<text text-anchor="middle" x="100.6834" y="-243.4" font-family="monospace" font-size="14.00" fill="#000000"> &#160;&#160;&#160;&#160;&#160;double; numeric &#160;&#160;&#160;&#160;&#160;</text>
</g>
<!-- FirstDataFrame__@__AnotherVarX2 -->
<g id="node6" class="node">
<title>FirstDataFrame__@__AnotherVarX2</title>
<polygon fill="#ffffff" stroke="#ffffff" points="175.5507,-216.6019 25.8161,-216.6019 25.8161,-175.3981 175.5507,-175.3981 175.5507,-216.6019"/>
<text text-anchor="middle" x="100.6834" y="-200.2" font-family="monospace" font-size="14.00" fill="#000000"> &#160;&#160;&#160;&#160;&#160;AnotherVarX2 &#160;&#160;&#160;&#160;&#160;</text>
<text text-anchor="middle" x="100.6834" y="-183.4" font-family="monospace" font-size="14.00" fill="#000000"> &#160;&#160;&#160;&#160;&#160;double; numeric &#160;&#160;&#160;&#160;&#160;</text>
</g>
<!-- FirstDataFrame__@__MyDate -->
<g id="node7" class="node">
<title>FirstDataFrame__@__MyDate</title>
<polygon fill="#ffffff" stroke="#ffffff" points="165.6056,-156.6019 35.7612,-156.6019 35.7612,-115.3981 165.6056,-115.3981 165.6056,-156.6019"/>
<text text-anchor="middle" x="100.6834" y="-140.2" font-family="monospace" font-size="14.00" fill="#000000"> &#160;&#160;&#160;MyDate &#160;&#160;&#160;</text>
<text text-anchor="middle" x="100.6834" y="-123.4" font-family="monospace" font-size="14.00" fill="#000000"> &#160;&#160;&#160;&#160;&#160;double; Date &#160;&#160;&#160;&#160;&#160;</text>
</g>
<!-- SecondDataFrame__@__Id2&#45;&#45;SimpleDF_2.tsv__@__Id2 -->
<g id="edge7" class="edge">
<title>SecondDataFrame__@__Id2&#45;&#45;SimpleDF_2.tsv__@__Id2</title>
<path fill="none" stroke="#000000" stroke-width="2" d="M487.8768,-501.4285C551.9518,-508.215 660.9874,-519.7635 725.1271,-526.5568"/>
</g>
<!-- SecondDataFrame__@__Id1&#45;&#45;SimpleDF_1.csv__@__Id1 -->
<g id="edge4" class="edge">
<title>SecondDataFrame__@__Id1&#45;&#45;SimpleDF_1.csv__@__Id1</title>
<path fill="none" stroke="#000000" stroke-width="2" d="M487.8976,-364.092C506.2653,-359.2409 526.9574,-353.0934 545.3062,-346 617.2702,-318.1796 696.5813,-275.1251 741.0984,-249.7335"/>
</g>
<!-- SecondDataFrame__@__Share&#45;&#45;SimpleDF_1.csv__@__Share -->
<g id="edge11" class="edge">
<title>SecondDataFrame__@__Share&#45;&#45;SimpleDF_1.csv__@__Share</title>
<path fill="none" stroke="#000000" stroke-width="3" stroke-dasharray="5,2" d="M478.0077,-307.957C498.7813,-303.0846 523.9939,-295.8756 545.3062,-286 607.5745,-257.1463 610.7911,-228.2403 672.8788,-199 681.9452,-194.7302 691.7486,-190.9347 701.585,-187.6019"/>
</g>
<!-- SecondDataFrame__@__AnotherVarY -->
<g id="node12" class="node">
<title>SecondDataFrame__@__AnotherVarY</title>
<polygon fill="#ffffff" stroke="#ffffff" points="511.4901,-276.6019 361.7555,-276.6019 361.7555,-235.3981 511.4901,-235.3981 511.4901,-276.6019"/>
<text text-anchor="middle" x="436.6228" y="-260.2" font-family="monospace" font-size="14.00" fill="#000000"> &#160;&#160;&#160;&#160;AnotherVarY &#160;&#160;&#160;&#160;</text>
<text text-anchor="middle" x="436.6228" y="-243.4" font-family="monospace" font-size="14.00" fill="#000000"> &#160;&#160;&#160;&#160;&#160;double; numeric &#160;&#160;&#160;&#160;&#160;</text>
</g>
<!-- Last_DF__@__ID #4 -->
<g id="node13" class="node">
<title>Last_DF__@__ID #4</title>
<polygon fill="#9ac0cd" stroke="#9ac0cd" points="487.908,-117.6019 385.3376,-117.6019 385.3376,-76.3981 487.908,-76.3981 487.908,-117.6019"/>
<text text-anchor="middle" x="436.6228" y="-101.2" font-family="monospace" font-size="14.00" fill="#000000"> &#160;&#160;&#160;`ID #4` &#160;&#160;&#160;</text>
<text text-anchor="middle" x="436.6228" y="-84.4" font-family="monospace" font-size="14.00" fill="#000000"> &#160;&#160;&#160;&#160;character &#160;&#160;&#160;&#160;</text>
</g>
<!-- SimpleDF_1.csv__@__ID #4 -->
<g id="node16" class="node">
<title>SimpleDF_1.csv__@__ID #4</title>
<polygon fill="#9ac0cd" stroke="#9ac0cd" points="827.805,-129.6019 725.2346,-129.6019 725.2346,-88.3981 827.805,-88.3981 827.805,-129.6019"/>
<text text-anchor="middle" x="776.5198" y="-113.2" font-family="monospace" font-size="14.00" fill="#000000"> &#160;&#160;&#160;`ID #4` &#160;&#160;&#160;</text>
<text text-anchor="middle" x="776.5198" y="-96.4" font-family="monospace" font-size="14.00" fill="#000000"> &#160;&#160;&#160;&#160;character &#160;&#160;&#160;&#160;</text>
</g>
<!-- Last_DF__@__ID #4&#45;&#45;SimpleDF_1.csv__@__ID #4 -->
<g id="edge1" class="edge">
<title>Last_DF__@__ID #4&#45;&#45;SimpleDF_1.csv__@__ID #4</title>
<path fill="none" stroke="#000000" stroke-width="2" d="M487.8768,-98.8095C551.9518,-101.0717 660.9874,-104.9212 725.1271,-107.1856"/>
</g>
<!-- Last_DF__@__Another Var R -->
<g id="node14" class="node">
<title>Last_DF__@__Another Var R</title>
<polygon fill="#ffffff" stroke="#ffffff" points="511.6356,-57.6019 361.61,-57.6019 361.61,-16.3981 511.6356,-16.3981 511.6356,-57.6019"/>
<text text-anchor="middle" x="436.6228" y="-41.2" font-family="monospace" font-size="14.00" fill="#000000"> &#160;&#160;&#160;&#160;&#160;`Another Var R` &#160;&#160;&#160;&#160;&#160;</text>
<text text-anchor="middle" x="436.6228" y="-24.4" font-family="monospace" font-size="14.00" fill="#000000"> &#160;&#160;&#160;&#160;&#160;double; numeric &#160;&#160;&#160;&#160;&#160;</text>
</g>
<!-- SimpleDF_1.csv__@__Another Var Q -->
<g id="node18" class="node">
<title>SimpleDF_1.csv__@__Another Var Q</title>
<polygon fill="#ffffff" stroke="#ffffff" points="852.3021,-69.6019 700.7375,-69.6019 700.7375,-28.3981 852.3021,-28.3981 852.3021,-69.6019"/>
<text text-anchor="middle" x="776.5198" y="-53.2" font-family="monospace" font-size="14.00" fill="#000000"> &#160;&#160;&#160;&#160;&#160;`Another Var Q` &#160;&#160;&#160;&#160;&#160;</text>
<text text-anchor="middle" x="776.5198" y="-36.4" font-family="monospace" font-size="14.00" fill="#000000"> &#160;&#160;&#160;&#160;&#160;double; numeric &#160;&#160;&#160;&#160;&#160;</text>
</g>
<!-- SimpleDF_2.tsv__@__ID #3 -->
<g id="node20" class="node">
<title>SimpleDF_2.tsv__@__ID #3</title>
<polygon fill="#ffffff" stroke="#ffffff" points="827.805,-492.6019 725.2346,-492.6019 725.2346,-451.3981 827.805,-451.3981 827.805,-492.6019"/>
<text text-anchor="middle" x="776.5198" y="-476.2" font-family="monospace" font-size="14.00" fill="#000000"> &#160;&#160;&#160;`ID #3` &#160;&#160;&#160;</text>
<text text-anchor="middle" x="776.5198" y="-459.4" font-family="monospace" font-size="14.00" fill="#000000"> &#160;&#160;&#160;&#160;character &#160;&#160;&#160;&#160;</text>
</g>
<!-- SimpleDF_2.tsv__@__Another Var S -->
<g id="node21" class="node">
<title>SimpleDF_2.tsv__@__Another Var S</title>
<polygon fill="#ffffff" stroke="#ffffff" points="851.3871,-432.6019 701.6525,-432.6019 701.6525,-391.3981 851.3871,-391.3981 851.3871,-432.6019"/>
<text text-anchor="middle" x="776.5198" y="-416.2" font-family="monospace" font-size="14.00" fill="#000000"> &#160;&#160;&#160;&#160;&#160;`Another Var S` &#160;&#160;&#160;&#160;&#160;</text>
<text text-anchor="middle" x="776.5198" y="-399.4" font-family="monospace" font-size="14.00" fill="#000000"> &#160;&#160;&#160;&#160;&#160;double; numeric &#160;&#160;&#160;&#160;&#160;</text>
</g>
</g>
</svg>
