<?xml version="1.0" encoding="UTF-8" standalone="no"?>
<!DOCTYPE svg PUBLIC "-//W3C//DTD SVG 1.1//EN"
 "http://www.w3.org/Graphics/SVG/1.1/DTD/svg11.dtd">
<!-- Generated by graphviz version 2.40.1 (20161225.0304)
 -->
<!-- Title: G Pages: 1 -->
<svg width="888pt" height="602pt"
 viewBox="0.00 0.00 888.16 602.00" xmlns="http://www.w3.org/2000/svg" xmlns:xlink="http://www.w3.org/1999/xlink">
<g id="graph0" class="graph" transform="scale(1 1) rotate(0) translate(4 598)">
<title>G</title>
<polygon fill="#ffffff" stroke="transparent" points="-4,4 -4,-598 884.1608,-598 884.1608,4 -4,4"/>
<g id="clust1" class="cluster">
<title>cluster_FirstDataFrame</title>
<polygon fill="#e5e5e5" stroke="#e5e5e5" points="0,-167 0,-550 201.3668,-550 201.3668,-167 0,-167"/>
<text text-anchor="start" x="7.7906" y="-534.4" font-family="monospace" font-weight="bold" font-size="14.00" fill="#000000">FirstDataFrame            </text>
</g>
<g id="clust2" class="cluster">
<title>cluster_SecondDataFrame</title>
<polygon fill="#e5e5e5" stroke="#e5e5e5" points="328.9394,-227 328.9394,-550 545.3062,-550 545.3062,-227 328.9394,-227"/>
<text text-anchor="start" x="336.4586" y="-534.4" font-family="monospace" font-weight="bold" font-size="14.00" fill="#000000">SecondDataFrame            </text>
</g>
<g id="clust3" class="cluster">
<title>cluster_Last_DF</title>
<polygon fill="#e5e5e5" stroke="#e5e5e5" points="350.3668,-8 350.3668,-151 523.8788,-151 523.8788,-8 350.3668,-8"/>
<text text-anchor="start" x="363.6634" y="-135.4" font-family="monospace" font-weight="bold" font-size="14.00" fill="#000000">Last_DF            </text>
</g>
<g id="clust4" class="cluster">
<title>cluster_SimpleDF_1_csv</title>
<polygon fill="#e5e5e5" stroke="#e5e5e5" points="672.8788,-20 672.8788,-283 880.1608,-283 880.1608,-20 672.8788,-20"/>
<text text-anchor="start" x="680.6975" y="-267.4" font-family="monospace" font-weight="bold" font-size="14.00" fill="#000000">SimpleDF_1.csv            </text>
</g>
<g id="clust5" class="cluster">
<title>cluster_SimpleDF_2_tsv</title>
<polygon fill="#e5e5e5" stroke="#e5e5e5" points="673.8364,-383 673.8364,-586 878.2032,-586 878.2032,-383 673.8364,-383"/>
<text text-anchor="start" x="681.3595" y="-570.4" font-family="monospace" font-weight="bold" font-size="14.00" fill="#000000">SimpleDF_2.tsv            </text>
</g>
<!-- FirstDataFrame__@__RowNum -->
<g id="node1" class="node">
<title>FirstDataFrame__@__RowNum</title>
<polygon fill="#ffffff" stroke="#ffffff" points="160.1246,-456.6019 40.2422,-456.6019 40.2422,-415.3981 160.1246,-415.3981 160.1246,-456.6019"/>
<text text-anchor="middle" x="100.1834" y="-440.2" font-family="monospace" font-size="14.00" fill="#000000"> &#160;&#160;&#160;&#160;&#160;&#160;RowNum &#160;&#160;&#160;&#160;&#160;&#160;</text>
<text text-anchor="middle" x="100.1834" y="-423.4" font-family="monospace" font-size="14.00" fill="#000000"> &#160;&#160;&#160;&#160;&#160;&#160;integer &#160;&#160;&#160;&#160;&#160;&#160;</text>
</g>
<!-- SecondDataFrame__@__RowNum -->
<g id="node7" class="node">
<title>SecondDataFrame__@__RowNum</title>
<polygon fill="#ffffff" stroke="#ffffff" points="497.064,-456.6019 377.1816,-456.6019 377.1816,-415.3981 497.064,-415.3981 497.064,-456.6019"/>
<text text-anchor="middle" x="437.1228" y="-440.2" font-family="monospace" font-size="14.00" fill="#000000"> &#160;&#160;&#160;&#160;&#160;&#160;RowNum &#160;&#160;&#160;&#160;&#160;&#160;</text>
<text text-anchor="middle" x="437.1228" y="-423.4" font-family="monospace" font-size="14.00" fill="#000000"> &#160;&#160;&#160;&#160;&#160;&#160;integer &#160;&#160;&#160;&#160;&#160;&#160;</text>
</g>
<!-- FirstDataFrame__@__RowNum&#45;&#45;SecondDataFrame__@__RowNum -->
<g id="edge8" class="edge">
<title>FirstDataFrame__@__RowNum&#45;&#45;SecondDataFrame__@__RowNum</title>
<path fill="none" stroke="#000000" stroke-width="2" d="M160.0332,-436C221.3039,-436 315.9899,-436 377.264,-436"/>
</g>
<!-- FirstDataFrame__@__Id1 -->
<g id="node2" class="node">
<title>FirstDataFrame__@__Id1</title>
<polygon fill="#ffffff" stroke="#ffffff" points="172.086,-396.6019 28.2808,-396.6019 28.2808,-355.3981 172.086,-355.3981 172.086,-396.6019"/>
<text text-anchor="middle" x="100.1834" y="-380.2" font-family="monospace" font-size="14.00" fill="#000000"> &#160;&#160;&#160;&#160;&#160;&#160;Id1 &#160;&#160;&#160;&#160;&#160;&#160;</text>
<text text-anchor="middle" x="100.1834" y="-363.4" font-family="monospace" font-size="14.00" fill="#000000"> &#160;&#160;&#160;&#160;&#160;&#160;integer; factor &#160;&#160;&#160;&#160;&#160;&#160;</text>
</g>
<!-- SecondDataFrame__@__Id1 -->
<g id="node9" class="node">
<title>SecondDataFrame__@__Id1</title>
<polygon fill="#ffffff" stroke="#ffffff" points="495.4079,-396.6019 378.8377,-396.6019 378.8377,-355.3981 495.4079,-355.3981 495.4079,-396.6019"/>
<text text-anchor="middle" x="437.1228" y="-380.2" font-family="monospace" font-size="14.00" fill="#000000"> &#160;&#160;&#160;&#160;&#160;&#160;Id1 &#160;&#160;&#160;&#160;&#160;&#160;</text>
<text text-anchor="middle" x="437.1228" y="-363.4" font-family="monospace" font-size="14.00" fill="#000000"> &#160;&#160;&#160;&#160;&#160;&#160;character &#160;&#160;&#160;&#160;&#160;&#160;</text>
</g>
<!-- FirstDataFrame__@__Id1&#45;&#45;SecondDataFrame__@__Id1 -->
<g id="edge2" class="edge">
<title>FirstDataFrame__@__Id1&#45;&#45;SecondDataFrame__@__Id1</title>
<path fill="none" stroke="#ff0000" stroke-width="2" stroke-dasharray="5,2" d="M172.4654,-376C234.1494,-376 321.706,-376 378.9506,-376"/>
</g>
<!-- SimpleDF_1.csv__@__Id1 -->
<g id="node14" class="node">
<title>SimpleDF_1.csv__@__Id1</title>
<polygon fill="#ffffff" stroke="#ffffff" points="834.3049,-249.6019 717.7347,-249.6019 717.7347,-208.3981 834.3049,-208.3981 834.3049,-249.6019"/>
<text text-anchor="middle" x="776.0198" y="-233.2" font-family="monospace" font-size="14.00" fill="#000000"> &#160;&#160;&#160;&#160;&#160;&#160;Id1 &#160;&#160;&#160;&#160;&#160;&#160;</text>
<text text-anchor="middle" x="776.0198" y="-216.4" font-family="monospace" font-size="14.00" fill="#000000"> &#160;&#160;&#160;&#160;&#160;&#160;character &#160;&#160;&#160;&#160;&#160;&#160;</text>
</g>
<!-- FirstDataFrame__@__Id1&#45;&#45;SimpleDF_1.csv__@__Id1 -->
<g id="edge3" class="edge">
<title>FirstDataFrame__@__Id1&#45;&#45;SimpleDF_1.csv__@__Id1</title>
<path fill="none" stroke="#ff0000" stroke-width="2" stroke-dasharray="5,2" d="M172.1948,-359.3328C182.3224,-355.6632 192.3437,-351.2589 201.3668,-346 269.4136,-306.3408 255.9023,-252.4752 328.9394,-223 459.5909,-170.2737 629.7116,-195.3276 717.6622,-214.3751"/>
</g>
<!-- FirstDataFrame__@__Id2 -->
<g id="node3" class="node">
<title>FirstDataFrame__@__Id2</title>
<polygon fill="#ffffff" stroke="#ffffff" points="158.4685,-516.6019 41.8983,-516.6019 41.8983,-475.3981 158.4685,-475.3981 158.4685,-516.6019"/>
<text text-anchor="middle" x="100.1834" y="-500.2" font-family="monospace" font-size="14.00" fill="#000000"> &#160;&#160;&#160;&#160;&#160;&#160;Id2 &#160;&#160;&#160;&#160;&#160;&#160;</text>
<text text-anchor="middle" x="100.1834" y="-483.4" font-family="monospace" font-size="14.00" fill="#000000"> &#160;&#160;&#160;&#160;&#160;&#160;character &#160;&#160;&#160;&#160;&#160;&#160;</text>
</g>
<!-- SecondDataFrame__@__Id2 -->
<g id="node8" class="node">
<title>SecondDataFrame__@__Id2</title>
<polygon fill="#ffffff" stroke="#ffffff" points="495.4079,-516.6019 378.8377,-516.6019 378.8377,-475.3981 495.4079,-475.3981 495.4079,-516.6019"/>
<text text-anchor="middle" x="437.1228" y="-500.2" font-family="monospace" font-size="14.00" fill="#000000"> &#160;&#160;&#160;&#160;&#160;&#160;Id2 &#160;&#160;&#160;&#160;&#160;&#160;</text>
<text text-anchor="middle" x="437.1228" y="-483.4" font-family="monospace" font-size="14.00" fill="#000000"> &#160;&#160;&#160;&#160;&#160;&#160;character &#160;&#160;&#160;&#160;&#160;&#160;</text>
</g>
<!-- FirstDataFrame__@__Id2&#45;&#45;SecondDataFrame__@__Id2 -->
<g id="edge5" class="edge">
<title>FirstDataFrame__@__Id2&#45;&#45;SecondDataFrame__@__Id2</title>
<path fill="none" stroke="#000000" stroke-width="2" d="M158.4891,-496C220.2687,-496 317.2446,-496 378.9671,-496"/>
</g>
<!-- SimpleDF_2.tsv__@__Id2 -->
<g id="node18" class="node">
<title>SimpleDF_2.tsv__@__Id2</title>
<polygon fill="#ffffff" stroke="#ffffff" points="834.3049,-552.6019 717.7347,-552.6019 717.7347,-511.3981 834.3049,-511.3981 834.3049,-552.6019"/>
<text text-anchor="middle" x="776.0198" y="-536.2" font-family="monospace" font-size="14.00" fill="#000000"> &#160;&#160;&#160;&#160;&#160;&#160;Id2 &#160;&#160;&#160;&#160;&#160;&#160;</text>
<text text-anchor="middle" x="776.0198" y="-519.4" font-family="monospace" font-size="14.00" fill="#000000"> &#160;&#160;&#160;&#160;&#160;&#160;character &#160;&#160;&#160;&#160;&#160;&#160;</text>
</g>
<!-- FirstDataFrame__@__Id2&#45;&#45;SimpleDF_2.tsv__@__Id2 -->
<g id="edge6" class="edge">
<title>FirstDataFrame__@__Id2&#45;&#45;SimpleDF_2.tsv__@__Id2</title>
<path fill="none" stroke="#000000" stroke-width="2" d="M158.6601,-515.1072C204.4292,-529.0128 269.9884,-546.643 328.9394,-554 467.5516,-571.2985 631.9273,-553.4585 717.5494,-541.2965"/>
</g>
<!-- FirstDataFrame__@__Share -->
<g id="node4" class="node">
<title>FirstDataFrame__@__Share</title>
<polygon fill="#ffffff" stroke="#ffffff" points="178.5506,-336.6019 21.8162,-336.6019 21.8162,-295.3981 178.5506,-295.3981 178.5506,-336.6019"/>
<text text-anchor="middle" x="100.1834" y="-320.2" font-family="monospace" font-size="14.00" fill="#000000"> &#160;&#160;&#160;&#160;&#160;&#160;Share &#160;&#160;&#160;&#160;&#160;&#160;</text>
<text text-anchor="middle" x="100.1834" y="-303.4" font-family="monospace" font-size="14.00" fill="#000000"> &#160;&#160;&#160;&#160;&#160;&#160;double; numeric &#160;&#160;&#160;&#160;&#160;&#160;</text>
</g>
<!-- SecondDataFrame__@__Share -->
<g id="node10" class="node">
<title>SecondDataFrame__@__Share</title>
<polygon fill="#ffffff" stroke="#ffffff" points="488.9939,-336.6019 385.2517,-336.6019 385.2517,-295.3981 488.9939,-295.3981 488.9939,-336.6019"/>
<text text-anchor="middle" x="437.1228" y="-320.2" font-family="monospace" font-size="14.00" fill="#000000"> &#160;&#160;&#160;&#160;&#160;&#160;Share &#160;&#160;&#160;&#160;&#160;&#160;</text>
<text text-anchor="middle" x="437.1228" y="-303.4" font-family="monospace" font-size="14.00" fill="#000000"> &#160;&#160;&#160;&#160;&#160;&#160;integer &#160;&#160;&#160;&#160;&#160;&#160;</text>
</g>
<!-- FirstDataFrame__@__Share&#45;&#45;SecondDataFrame__@__Share -->
<g id="edge9" class="edge">
<title>FirstDataFrame__@__Share&#45;&#45;SecondDataFrame__@__Share</title>
<path fill="none" stroke="#000000" stroke-width="2" stroke-dasharray="5,2" d="M178.7555,-316C242.3435,-316 330.0963,-316 385.2094,-316"/>
</g>
<!-- SimpleDF_1.csv__@__Share -->
<g id="node16" class="node">
<title>SimpleDF_1.csv__@__Share</title>
<polygon fill="#ffffff" stroke="#ffffff" points="854.387,-189.6019 697.6526,-189.6019 697.6526,-148.3981 854.387,-148.3981 854.387,-189.6019"/>
<text text-anchor="middle" x="776.0198" y="-173.2" font-family="monospace" font-size="14.00" fill="#000000"> &#160;&#160;&#160;&#160;&#160;&#160;Share &#160;&#160;&#160;&#160;&#160;&#160;</text>
<text text-anchor="middle" x="776.0198" y="-156.4" font-family="monospace" font-size="14.00" fill="#000000"> &#160;&#160;&#160;&#160;&#160;&#160;double; numeric &#160;&#160;&#160;&#160;&#160;&#160;</text>
</g>
<!-- FirstDataFrame__@__Share&#45;&#45;SimpleDF_1.csv__@__Share -->
<g id="edge10" class="edge">
<title>FirstDataFrame__@__Share&#45;&#45;SimpleDF_1.csv__@__Share</title>
<path fill="none" stroke="#000000" stroke-width="2" d="M178.3846,-295.9899C186.3079,-293.0276 194.1035,-289.7045 201.3668,-286 265.0583,-253.5155 261.7464,-212.4327 328.9394,-188 394.467,-164.1728 587.9059,-164.4183 697.6643,-166.6928"/>
</g>
<!-- FirstDataFrame__@__AnotherVarX -->
<g id="node5" class="node">
<title>FirstDataFrame__@__AnotherVarX</title>
<polygon fill="#ffffff" stroke="#ffffff" points="178.5506,-276.6019 21.8162,-276.6019 21.8162,-235.3981 178.5506,-235.3981 178.5506,-276.6019"/>
<text text-anchor="middle" x="100.1834" y="-260.2" font-family="monospace" font-size="14.00" fill="#000000"> &#160;&#160;&#160;&#160;&#160;&#160;AnotherVarX &#160;&#160;&#160;&#160;&#160;&#160;</text>
<text text-anchor="middle" x="100.1834" y="-243.4" font-family="monospace" font-size="14.00" fill="#000000"> &#160;&#160;&#160;&#160;&#160;&#160;double; numeric &#160;&#160;&#160;&#160;&#160;&#160;</text>
</g>
<!-- FirstDataFrame__@__AnotherVarX2 -->
<g id="node6" class="node">
<title>FirstDataFrame__@__AnotherVarX2</title>
<polygon fill="#ffffff" stroke="#ffffff" points="178.5506,-216.6019 21.8162,-216.6019 21.8162,-175.3981 178.5506,-175.3981 178.5506,-216.6019"/>
<text text-anchor="middle" x="100.1834" y="-200.2" font-family="monospace" font-size="14.00" fill="#000000"> &#160;&#160;&#160;&#160;&#160;&#160;AnotherVarX2 &#160;&#160;&#160;&#160;&#160;&#160;</text>
<text text-anchor="middle" x="100.1834" y="-183.4" font-family="monospace" font-size="14.00" fill="#000000"> &#160;&#160;&#160;&#160;&#160;&#160;double; numeric &#160;&#160;&#160;&#160;&#160;&#160;</text>
</g>
<!-- SecondDataFrame__@__Id2&#45;&#45;SimpleDF_2.tsv__@__Id2 -->
<g id="edge7" class="edge">
<title>SecondDataFrame__@__Id2&#45;&#45;SimpleDF_2.tsv__@__Id2</title>
<path fill="none" stroke="#000000" stroke-width="2" d="M495.3813,-502.1886C557.5497,-508.7926 655.469,-519.1942 717.6717,-525.8019"/>
</g>
<!-- SecondDataFrame__@__Id1&#45;&#45;SimpleDF_1.csv__@__Id1 -->
<g id="edge4" class="edge">
<title>SecondDataFrame__@__Id1&#45;&#45;SimpleDF_1.csv__@__Id1</title>
<path fill="none" stroke="#000000" stroke-width="2" d="M495.3642,-362.1321C511.7359,-357.6215 529.4055,-352.1658 545.3062,-346 617.1178,-318.1536 696.2562,-275.108 740.676,-249.725"/>
</g>
<!-- SecondDataFrame__@__Share&#45;&#45;SimpleDF_1.csv__@__Share -->
<g id="edge11" class="edge">
<title>SecondDataFrame__@__Share&#45;&#45;SimpleDF_1.csv__@__Share</title>
<path fill="none" stroke="#000000" stroke-width="2" stroke-dasharray="5,2" d="M489.2592,-305.2262C507.4556,-300.5137 527.7152,-294.1639 545.3062,-286 607.5574,-257.1094 610.81,-228.2804 672.8788,-199 680.7215,-195.3003 689.1181,-191.9548 697.6085,-188.9569"/>
</g>
<!-- SecondDataFrame__@__AnotherVarY -->
<g id="node11" class="node">
<title>SecondDataFrame__@__AnotherVarY</title>
<polygon fill="#ffffff" stroke="#ffffff" points="515.49,-276.6019 358.7556,-276.6019 358.7556,-235.3981 515.49,-235.3981 515.49,-276.6019"/>
<text text-anchor="middle" x="437.1228" y="-260.2" font-family="monospace" font-size="14.00" fill="#000000"> &#160;&#160;&#160;&#160;&#160;&#160;AnotherVarY &#160;&#160;&#160;&#160;&#160;&#160;</text>
<text text-anchor="middle" x="437.1228" y="-243.4" font-family="monospace" font-size="14.00" fill="#000000"> &#160;&#160;&#160;&#160;&#160;&#160;double; numeric &#160;&#160;&#160;&#160;&#160;&#160;</text>
</g>
<!-- Last_DF__@__ID #4 -->
<g id="node12" class="node">
<title>Last_DF__@__ID #4</title>
<polygon fill="#ffffff" stroke="#ffffff" points="495.4079,-117.6019 378.8377,-117.6019 378.8377,-76.3981 495.4079,-76.3981 495.4079,-117.6019"/>
<text text-anchor="middle" x="437.1228" y="-101.2" font-family="monospace" font-size="14.00" fill="#000000"> &#160;&#160;&#160;&#160;&#160;&#160;`ID #4` &#160;&#160;&#160;&#160;&#160;&#160;</text>
<text text-anchor="middle" x="437.1228" y="-84.4" font-family="monospace" font-size="14.00" fill="#000000"> &#160;&#160;&#160;&#160;&#160;&#160;character &#160;&#160;&#160;&#160;&#160;&#160;</text>
</g>
<!-- SimpleDF_1.csv__@__ID #4 -->
<g id="node15" class="node">
<title>SimpleDF_1.csv__@__ID #4</title>
<polygon fill="#ffffff" stroke="#ffffff" points="834.3049,-129.6019 717.7347,-129.6019 717.7347,-88.3981 834.3049,-88.3981 834.3049,-129.6019"/>
<text text-anchor="middle" x="776.0198" y="-113.2" font-family="monospace" font-size="14.00" fill="#000000"> &#160;&#160;&#160;&#160;&#160;&#160;`ID #4` &#160;&#160;&#160;&#160;&#160;&#160;</text>
<text text-anchor="middle" x="776.0198" y="-96.4" font-family="monospace" font-size="14.00" fill="#000000"> &#160;&#160;&#160;&#160;&#160;&#160;character &#160;&#160;&#160;&#160;&#160;&#160;</text>
</g>
<!-- Last_DF__@__ID #4&#45;&#45;SimpleDF_1.csv__@__ID #4 -->
<g id="edge1" class="edge">
<title>Last_DF__@__ID #4&#45;&#45;SimpleDF_1.csv__@__ID #4</title>
<path fill="none" stroke="#000000" stroke-width="2" d="M495.3813,-99.0629C557.5497,-101.2642 655.469,-104.7314 717.6717,-106.934"/>
</g>
<!-- Last_DF__@__Another Var R -->
<g id="node13" class="node">
<title>Last_DF__@__Another Var R</title>
<polygon fill="#ffffff" stroke="#ffffff" points="515.6356,-57.6019 358.61,-57.6019 358.61,-16.3981 515.6356,-16.3981 515.6356,-57.6019"/>
<text text-anchor="middle" x="437.1228" y="-41.2" font-family="monospace" font-size="14.00" fill="#000000"> &#160;&#160;&#160;&#160;&#160;&#160;`Another Var R` &#160;&#160;&#160;&#160;&#160;&#160;</text>
<text text-anchor="middle" x="437.1228" y="-24.4" font-family="monospace" font-size="14.00" fill="#000000"> &#160;&#160;&#160;&#160;&#160;&#160;double; numeric &#160;&#160;&#160;&#160;&#160;&#160;</text>
</g>
<!-- SimpleDF_1.csv__@__Another Var Q -->
<g id="node17" class="node">
<title>SimpleDF_1.csv__@__Another Var Q</title>
<polygon fill="#ffffff" stroke="#ffffff" points="855.3021,-69.6019 696.7375,-69.6019 696.7375,-28.3981 855.3021,-28.3981 855.3021,-69.6019"/>
<text text-anchor="middle" x="776.0198" y="-53.2" font-family="monospace" font-size="14.00" fill="#000000"> &#160;&#160;&#160;&#160;&#160;&#160;`Another Var Q` &#160;&#160;&#160;&#160;&#160;&#160;</text>
<text text-anchor="middle" x="776.0198" y="-36.4" font-family="monospace" font-size="14.00" fill="#000000"> &#160;&#160;&#160;&#160;&#160;&#160;double; numeric &#160;&#160;&#160;&#160;&#160;&#160;</text>
</g>
<!-- SimpleDF_2.tsv__@__ID #3 -->
<g id="node19" class="node">
<title>SimpleDF_2.tsv__@__ID #3</title>
<polygon fill="#ffffff" stroke="#ffffff" points="834.3049,-492.6019 717.7347,-492.6019 717.7347,-451.3981 834.3049,-451.3981 834.3049,-492.6019"/>
<text text-anchor="middle" x="776.0198" y="-476.2" font-family="monospace" font-size="14.00" fill="#000000"> &#160;&#160;&#160;&#160;&#160;&#160;`ID #3` &#160;&#160;&#160;&#160;&#160;&#160;</text>
<text text-anchor="middle" x="776.0198" y="-459.4" font-family="monospace" font-size="14.00" fill="#000000"> &#160;&#160;&#160;&#160;&#160;&#160;character &#160;&#160;&#160;&#160;&#160;&#160;</text>
</g>
<!-- SimpleDF_2.tsv__@__Another Var S -->
<g id="node20" class="node">
<title>SimpleDF_2.tsv__@__Another Var S</title>
<polygon fill="#ffffff" stroke="#ffffff" points="854.387,-432.6019 697.6526,-432.6019 697.6526,-391.3981 854.387,-391.3981 854.387,-432.6019"/>
<text text-anchor="middle" x="776.0198" y="-416.2" font-family="monospace" font-size="14.00" fill="#000000"> &#160;&#160;&#160;&#160;&#160;&#160;`Another Var S` &#160;&#160;&#160;&#160;&#160;&#160;</text>
<text text-anchor="middle" x="776.0198" y="-399.4" font-family="monospace" font-size="14.00" fill="#000000"> &#160;&#160;&#160;&#160;&#160;&#160;double; numeric &#160;&#160;&#160;&#160;&#160;&#160;</text>
</g>
</g>
</svg>
