<?xml version="1.0" encoding="UTF-8" standalone="no"?>
<!DOCTYPE svg PUBLIC "-//W3C//DTD SVG 1.1//EN"
 "http://www.w3.org/Graphics/SVG/1.1/DTD/svg11.dtd">
<!-- Generated by graphviz version 2.40.1 (20161225.0304)
 -->
<!-- Title: G Pages: 1 -->
<svg width="987pt" height="602pt"
 viewBox="0.00 0.00 987.16 602.00" xmlns="http://www.w3.org/2000/svg" xmlns:xlink="http://www.w3.org/1999/xlink">
<g id="graph0" class="graph" transform="scale(1 1) rotate(0) translate(4 598)">
<title>G</title>
<polygon fill="#ffffff" stroke="transparent" points="-4,4 -4,-598 983.1608,-598 983.1608,4 -4,4"/>
<g id="clust1" class="cluster">
<title>cluster_FirstDataFrame</title>
<polygon fill="#e5e5e5" stroke="#e5e5e5" points="0,-107 0,-550 234.3668,-550 234.3668,-107 0,-107"/>
<text text-anchor="start" x="7.9694" y="-534.4" font-family="monospace" font-weight="bold" font-size="14.00" fill="#000000">        FirstDataFrame        </text>
</g>
<g id="clust2" class="cluster">
<title>cluster_SecondDataFrame</title>
<polygon fill="#e5e5e5" stroke="#e5e5e5" points="361.9394,-227 361.9394,-550 611.3062,-550 611.3062,-227 361.9394,-227"/>
<text text-anchor="start" x="369.6374" y="-534.4" font-family="monospace" font-weight="bold" font-size="14.00" fill="#000000">        SecondDataFrame        </text>
</g>
<g id="clust3" class="cluster">
<title>cluster_Last_DF</title>
<polygon fill="#e5e5e5" stroke="#e5e5e5" points="396.3668,-8 396.3668,-151 576.8788,-151 576.8788,-8 396.3668,-8"/>
<text text-anchor="start" x="413.1634" y="-135.4" font-family="monospace" font-weight="bold" font-size="14.00" fill="#000000">      Last_DF      </text>
</g>
<g id="clust4" class="cluster">
<title>cluster_SimpleDF_1_csv</title>
<polygon fill="#e5e5e5" stroke="#e5e5e5" points="738.8788,-20 738.8788,-283 979.1608,-283 979.1608,-20 738.8788,-20"/>
<text text-anchor="start" x="746.8763" y="-267.4" font-family="monospace" font-weight="bold" font-size="14.00" fill="#000000">        SimpleDF_1.csv        </text>
</g>
<g id="clust5" class="cluster">
<title>cluster_SimpleDF_2_tsv</title>
<polygon fill="#e5e5e5" stroke="#e5e5e5" points="739.8364,-383 739.8364,-586 977.2032,-586 977.2032,-383 739.8364,-383"/>
<text text-anchor="start" x="747.5383" y="-570.4" font-family="monospace" font-weight="bold" font-size="14.00" fill="#000000">        SimpleDF_2.tsv        </text>
</g>
<!-- FirstDataFrame__@__RowNum -->
<g id="node1" class="node">
<title>FirstDataFrame__@__RowNum</title>
<polygon fill="#9ac0cd" stroke="#9ac0cd" points="173.1247,-456.6019 60.2421,-456.6019 60.2421,-415.3981 173.1247,-415.3981 173.1247,-456.6019"/>
<text text-anchor="middle" x="116.6834" y="-440.2" font-family="monospace" font-size="14.00" fill="#000000"> &#160;&#160;&#160;&#160;&#160;RowNum &#160;&#160;&#160;&#160;&#160;</text>
<text text-anchor="middle" x="116.6834" y="-423.4" font-family="monospace" font-size="14.00" fill="#000000"> &#160;&#160;&#160;&#160;&#160;integer &#160;&#160;&#160;&#160;&#160;</text>
</g>
<!-- SecondDataFrame__@__RowNum -->
<g id="node8" class="node">
<title>SecondDataFrame__@__RowNum</title>
<polygon fill="#9ac0cd" stroke="#9ac0cd" points="543.0641,-456.6019 430.1815,-456.6019 430.1815,-415.3981 543.0641,-415.3981 543.0641,-456.6019"/>
<text text-anchor="middle" x="486.6228" y="-440.2" font-family="monospace" font-size="14.00" fill="#000000"> &#160;&#160;&#160;&#160;&#160;RowNum &#160;&#160;&#160;&#160;&#160;</text>
<text text-anchor="middle" x="486.6228" y="-423.4" font-family="monospace" font-size="14.00" fill="#000000"> &#160;&#160;&#160;&#160;&#160;integer &#160;&#160;&#160;&#160;&#160;</text>
</g>
<!-- FirstDataFrame__@__RowNum&#45;&#45;SecondDataFrame__@__RowNum -->
<g id="edge8" class="edge">
<title>FirstDataFrame__@__RowNum&#45;&#45;SecondDataFrame__@__RowNum</title>
<path fill="none" stroke="#000000" stroke-width="2" d="M173.2719,-436C243.0003,-436 360.7581,-436 430.3439,-436"/>
</g>
<!-- FirstDataFrame__@__Id1 -->
<g id="node2" class="node">
<title>FirstDataFrame__@__Id1</title>
<polygon fill="#9ac0cd" stroke="#9ac0cd" points="192.086,-396.6019 41.2808,-396.6019 41.2808,-355.3981 192.086,-355.3981 192.086,-396.6019"/>
<text text-anchor="middle" x="116.6834" y="-380.2" font-family="monospace" font-size="14.00" fill="#000000"> &#160;&#160;&#160;&#160;Id1 &#160;&#160;&#160;&#160;</text>
<text text-anchor="middle" x="116.6834" y="-363.4" font-family="monospace" font-size="14.00" fill="#000000"> &#160;&#160;&#160;&#160;&#160;&#160;&#160;integer; factor &#160;&#160;&#160;&#160;&#160;&#160;&#160;</text>
</g>
<!-- SecondDataFrame__@__Id1 -->
<g id="node10" class="node">
<title>SecondDataFrame__@__Id1</title>
<polygon fill="#9ac0cd" stroke="#9ac0cd" points="544.9079,-396.6019 428.3377,-396.6019 428.3377,-355.3981 544.9079,-355.3981 544.9079,-396.6019"/>
<text text-anchor="middle" x="486.6228" y="-380.2" font-family="monospace" font-size="14.00" fill="#000000"> &#160;&#160;&#160;&#160;Id1 &#160;&#160;&#160;&#160;</text>
<text text-anchor="middle" x="486.6228" y="-363.4" font-family="monospace" font-size="14.00" fill="#000000"> &#160;&#160;&#160;&#160;&#160;&#160;character &#160;&#160;&#160;&#160;&#160;&#160;</text>
</g>
<!-- FirstDataFrame__@__Id1&#45;&#45;SecondDataFrame__@__Id1 -->
<g id="edge2" class="edge">
<title>FirstDataFrame__@__Id1&#45;&#45;SecondDataFrame__@__Id1</title>
<path fill="none" stroke="#ff0000" stroke-width="7" stroke-dasharray="1,5" d="M192.4389,-376C262.3026,-376 364.5518,-376 428.2655,-376"/>
</g>
<!-- SimpleDF_1.csv__@__Id1 -->
<g id="node15" class="node">
<title>SimpleDF_1.csv__@__Id1</title>
<polygon fill="#9ac0cd" stroke="#9ac0cd" points="916.8049,-249.6019 800.2347,-249.6019 800.2347,-208.3981 916.8049,-208.3981 916.8049,-249.6019"/>
<text text-anchor="middle" x="858.5198" y="-233.2" font-family="monospace" font-size="14.00" fill="#000000"> &#160;&#160;&#160;&#160;Id1 &#160;&#160;&#160;&#160;</text>
<text text-anchor="middle" x="858.5198" y="-216.4" font-family="monospace" font-size="14.00" fill="#000000"> &#160;&#160;&#160;&#160;&#160;&#160;character &#160;&#160;&#160;&#160;&#160;&#160;</text>
</g>
<!-- FirstDataFrame__@__Id1&#45;&#45;SimpleDF_1.csv__@__Id1 -->
<g id="edge3" class="edge">
<title>FirstDataFrame__@__Id1&#45;&#45;SimpleDF_1.csv__@__Id1</title>
<path fill="none" stroke="#ff0000" stroke-width="7" stroke-dasharray="1,5" d="M192.364,-362.8799C206.8332,-358.6826 221.4741,-353.1842 234.3668,-346 303.1668,-307.6624 288.9023,-252.4752 361.9394,-223 510.252,-163.1462 704.3611,-193.184 800.0247,-214.2676"/>
</g>
<!-- FirstDataFrame__@__Id2 -->
<g id="node3" class="node">
<title>FirstDataFrame__@__Id2</title>
<polygon fill="#9ac0cd" stroke="#9ac0cd" points="174.9685,-516.6019 58.3983,-516.6019 58.3983,-475.3981 174.9685,-475.3981 174.9685,-516.6019"/>
<text text-anchor="middle" x="116.6834" y="-500.2" font-family="monospace" font-size="14.00" fill="#000000"> &#160;&#160;&#160;&#160;Id2 &#160;&#160;&#160;&#160;</text>
<text text-anchor="middle" x="116.6834" y="-483.4" font-family="monospace" font-size="14.00" fill="#000000"> &#160;&#160;&#160;&#160;&#160;&#160;character &#160;&#160;&#160;&#160;&#160;&#160;</text>
</g>
<!-- SecondDataFrame__@__Id2 -->
<g id="node9" class="node">
<title>SecondDataFrame__@__Id2</title>
<polygon fill="#9ac0cd" stroke="#9ac0cd" points="544.9079,-516.6019 428.3377,-516.6019 428.3377,-475.3981 544.9079,-475.3981 544.9079,-516.6019"/>
<text text-anchor="middle" x="486.6228" y="-500.2" font-family="monospace" font-size="14.00" fill="#000000"> &#160;&#160;&#160;&#160;Id2 &#160;&#160;&#160;&#160;</text>
<text text-anchor="middle" x="486.6228" y="-483.4" font-family="monospace" font-size="14.00" fill="#000000"> &#160;&#160;&#160;&#160;&#160;&#160;character &#160;&#160;&#160;&#160;&#160;&#160;</text>
</g>
<!-- FirstDataFrame__@__Id2&#45;&#45;SecondDataFrame__@__Id2 -->
<g id="edge5" class="edge">
<title>FirstDataFrame__@__Id2&#45;&#45;SecondDataFrame__@__Id2</title>
<path fill="none" stroke="#000000" stroke-width="2" d="M174.8934,-496C244.1772,-496 359.1789,-496 428.4474,-496"/>
</g>
<!-- SimpleDF_2.tsv__@__Id2 -->
<g id="node19" class="node">
<title>SimpleDF_2.tsv__@__Id2</title>
<polygon fill="#9ac0cd" stroke="#9ac0cd" points="916.8049,-552.6019 800.2347,-552.6019 800.2347,-511.3981 916.8049,-511.3981 916.8049,-552.6019"/>
<text text-anchor="middle" x="858.5198" y="-536.2" font-family="monospace" font-size="14.00" fill="#000000"> &#160;&#160;&#160;&#160;Id2 &#160;&#160;&#160;&#160;</text>
<text text-anchor="middle" x="858.5198" y="-519.4" font-family="monospace" font-size="14.00" fill="#000000"> &#160;&#160;&#160;&#160;&#160;&#160;character &#160;&#160;&#160;&#160;&#160;&#160;</text>
</g>
<!-- FirstDataFrame__@__Id2&#45;&#45;SimpleDF_2.tsv__@__Id2 -->
<g id="edge6" class="edge">
<title>FirstDataFrame__@__Id2&#45;&#45;SimpleDF_2.tsv__@__Id2</title>
<path fill="none" stroke="#000000" stroke-width="2" d="M174.9719,-513.8276C224.2398,-527.9147 296.9682,-546.4221 361.9394,-554 519.6557,-572.3953 707.189,-552.9821 800.2009,-540.6071"/>
</g>
<!-- FirstDataFrame__@__Share -->
<g id="node4" class="node">
<title>FirstDataFrame__@__Share</title>
<polygon fill="#9ac0cd" stroke="#9ac0cd" points="198.5506,-336.6019 34.8162,-336.6019 34.8162,-295.3981 198.5506,-295.3981 198.5506,-336.6019"/>
<text text-anchor="middle" x="116.6834" y="-320.2" font-family="monospace" font-size="14.00" fill="#000000"> &#160;&#160;&#160;&#160;&#160;Share &#160;&#160;&#160;&#160;&#160;</text>
<text text-anchor="middle" x="116.6834" y="-303.4" font-family="monospace" font-size="14.00" fill="#000000"> &#160;&#160;&#160;&#160;&#160;&#160;&#160;double; numeric &#160;&#160;&#160;&#160;&#160;&#160;&#160;</text>
</g>
<!-- SecondDataFrame__@__Share -->
<g id="node11" class="node">
<title>SecondDataFrame__@__Share</title>
<polygon fill="#9ac0cd" stroke="#9ac0cd" points="534.9939,-336.6019 438.2517,-336.6019 438.2517,-295.3981 534.9939,-295.3981 534.9939,-336.6019"/>
<text text-anchor="middle" x="486.6228" y="-320.2" font-family="monospace" font-size="14.00" fill="#000000"> &#160;&#160;&#160;&#160;&#160;Share &#160;&#160;&#160;&#160;&#160;</text>
<text text-anchor="middle" x="486.6228" y="-303.4" font-family="monospace" font-size="14.00" fill="#000000"> &#160;&#160;&#160;&#160;&#160;integer &#160;&#160;&#160;&#160;&#160;</text>
</g>
<!-- FirstDataFrame__@__Share&#45;&#45;SecondDataFrame__@__Share -->
<g id="edge9" class="edge">
<title>FirstDataFrame__@__Share&#45;&#45;SecondDataFrame__@__Share</title>
<path fill="none" stroke="#000000" stroke-width="3" stroke-dasharray="5,2" d="M198.7849,-316C272.2235,-316 377.3833,-316 438.1706,-316"/>
</g>
<!-- SimpleDF_1.csv__@__Share -->
<g id="node17" class="node">
<title>SimpleDF_1.csv__@__Share</title>
<polygon fill="#9ac0cd" stroke="#9ac0cd" points="940.387,-189.6019 776.6526,-189.6019 776.6526,-148.3981 940.387,-148.3981 940.387,-189.6019"/>
<text text-anchor="middle" x="858.5198" y="-173.2" font-family="monospace" font-size="14.00" fill="#000000"> &#160;&#160;&#160;&#160;&#160;Share &#160;&#160;&#160;&#160;&#160;</text>
<text text-anchor="middle" x="858.5198" y="-156.4" font-family="monospace" font-size="14.00" fill="#000000"> &#160;&#160;&#160;&#160;&#160;&#160;&#160;double; numeric &#160;&#160;&#160;&#160;&#160;&#160;&#160;</text>
</g>
<!-- FirstDataFrame__@__Share&#45;&#45;SimpleDF_1.csv__@__Share -->
<g id="edge10" class="edge">
<title>FirstDataFrame__@__Share&#45;&#45;SimpleDF_1.csv__@__Share</title>
<path fill="none" stroke="#000000" stroke-width="2" d="M198.401,-299.9931C210.7699,-296.2057 223.1369,-291.5923 234.3668,-286 299.3491,-253.6398 293.8048,-209.0511 361.9394,-184 435.6065,-156.9147 655.5159,-160.7598 776.4956,-165.246"/>
</g>
<!-- FirstDataFrame__@__AnotherVarX -->
<g id="node5" class="node">
<title>FirstDataFrame__@__AnotherVarX</title>
<polygon fill="#ffffff" stroke="#ffffff" points="198.5506,-276.6019 34.8162,-276.6019 34.8162,-235.3981 198.5506,-235.3981 198.5506,-276.6019"/>
<text text-anchor="middle" x="116.6834" y="-260.2" font-family="monospace" font-size="14.00" fill="#000000"> &#160;&#160;&#160;&#160;&#160;&#160;AnotherVarX &#160;&#160;&#160;&#160;&#160;&#160;</text>
<text text-anchor="middle" x="116.6834" y="-243.4" font-family="monospace" font-size="14.00" fill="#000000"> &#160;&#160;&#160;&#160;&#160;&#160;&#160;double; numeric &#160;&#160;&#160;&#160;&#160;&#160;&#160;</text>
</g>
<!-- FirstDataFrame__@__AnotherVarX2 -->
<g id="node6" class="node">
<title>FirstDataFrame__@__AnotherVarX2</title>
<polygon fill="#ffffff" stroke="#ffffff" points="198.5506,-216.6019 34.8162,-216.6019 34.8162,-175.3981 198.5506,-175.3981 198.5506,-216.6019"/>
<text text-anchor="middle" x="116.6834" y="-200.2" font-family="monospace" font-size="14.00" fill="#000000"> &#160;&#160;&#160;&#160;&#160;&#160;&#160;AnotherVarX2 &#160;&#160;&#160;&#160;&#160;&#160;&#160;</text>
<text text-anchor="middle" x="116.6834" y="-183.4" font-family="monospace" font-size="14.00" fill="#000000"> &#160;&#160;&#160;&#160;&#160;&#160;&#160;double; numeric &#160;&#160;&#160;&#160;&#160;&#160;&#160;</text>
</g>
<!-- FirstDataFrame__@__MyDate -->
<g id="node7" class="node">
<title>FirstDataFrame__@__MyDate</title>
<polygon fill="#ffffff" stroke="#ffffff" points="188.6056,-156.6019 44.7612,-156.6019 44.7612,-115.3981 188.6056,-115.3981 188.6056,-156.6019"/>
<text text-anchor="middle" x="116.6834" y="-140.2" font-family="monospace" font-size="14.00" fill="#000000"> &#160;&#160;&#160;&#160;&#160;MyDate &#160;&#160;&#160;&#160;&#160;</text>
<text text-anchor="middle" x="116.6834" y="-123.4" font-family="monospace" font-size="14.00" fill="#000000"> &#160;&#160;&#160;&#160;&#160;&#160;&#160;double; Date &#160;&#160;&#160;&#160;&#160;&#160;&#160;</text>
</g>
<!-- SecondDataFrame__@__Id2&#45;&#45;SimpleDF_2.tsv__@__Id2 -->
<g id="edge7" class="edge">
<title>SecondDataFrame__@__Id2&#45;&#45;SimpleDF_2.tsv__@__Id2</title>
<path fill="none" stroke="#000000" stroke-width="2" d="M545.1408,-501.6646C614.8935,-508.4167 730.7411,-519.6309 800.343,-526.3684"/>
</g>
<!-- SecondDataFrame__@__Id1&#45;&#45;SimpleDF_1.csv__@__Id1 -->
<g id="edge4" class="edge">
<title>SecondDataFrame__@__Id1&#45;&#45;SimpleDF_1.csv__@__Id1</title>
<path fill="none" stroke="#000000" stroke-width="2" d="M545.0749,-364.5502C566.2189,-359.7269 590.0997,-353.4796 611.3062,-346 688.3268,-318.8346 773.4471,-275.3571 821.0149,-249.7497"/>
</g>
<!-- SecondDataFrame__@__Share&#45;&#45;SimpleDF_1.csv__@__Share -->
<g id="edge11" class="edge">
<title>SecondDataFrame__@__Share&#45;&#45;SimpleDF_1.csv__@__Share</title>
<path fill="none" stroke="#000000" stroke-width="3" stroke-dasharray="5,2" d="M535.0183,-308.5878C558.6817,-303.9151 587.1874,-296.6934 611.3062,-286 674.045,-258.184 676.2738,-227.1157 738.8788,-199 750.7949,-193.6485 763.8252,-189.1441 776.7621,-185.3867"/>
</g>
<!-- SecondDataFrame__@__AnotherVarY -->
<g id="node12" class="node">
<title>SecondDataFrame__@__AnotherVarY</title>
<polygon fill="#ffffff" stroke="#ffffff" points="568.49,-276.6019 404.7556,-276.6019 404.7556,-235.3981 568.49,-235.3981 568.49,-276.6019"/>
<text text-anchor="middle" x="486.6228" y="-260.2" font-family="monospace" font-size="14.00" fill="#000000"> &#160;&#160;&#160;&#160;&#160;&#160;AnotherVarY &#160;&#160;&#160;&#160;&#160;&#160;</text>
<text text-anchor="middle" x="486.6228" y="-243.4" font-family="monospace" font-size="14.00" fill="#000000"> &#160;&#160;&#160;&#160;&#160;&#160;&#160;double; numeric &#160;&#160;&#160;&#160;&#160;&#160;&#160;</text>
</g>
<!-- Last_DF__@__ID #4 -->
<g id="node13" class="node">
<title>Last_DF__@__ID #4</title>
<polygon fill="#9ac0cd" stroke="#9ac0cd" points="544.9079,-117.6019 428.3377,-117.6019 428.3377,-76.3981 544.9079,-76.3981 544.9079,-117.6019"/>
<text text-anchor="middle" x="486.6228" y="-101.2" font-family="monospace" font-size="14.00" fill="#000000"> &#160;&#160;&#160;&#160;&#160;`ID #4` &#160;&#160;&#160;&#160;&#160;</text>
<text text-anchor="middle" x="486.6228" y="-84.4" font-family="monospace" font-size="14.00" fill="#000000"> &#160;&#160;&#160;&#160;&#160;&#160;character &#160;&#160;&#160;&#160;&#160;&#160;</text>
</g>
<!-- SimpleDF_1.csv__@__ID #4 -->
<g id="node16" class="node">
<title>SimpleDF_1.csv__@__ID #4</title>
<polygon fill="#9ac0cd" stroke="#9ac0cd" points="916.8049,-129.6019 800.2347,-129.6019 800.2347,-88.3981 916.8049,-88.3981 916.8049,-129.6019"/>
<text text-anchor="middle" x="858.5198" y="-113.2" font-family="monospace" font-size="14.00" fill="#000000"> &#160;&#160;&#160;&#160;&#160;`ID #4` &#160;&#160;&#160;&#160;&#160;</text>
<text text-anchor="middle" x="858.5198" y="-96.4" font-family="monospace" font-size="14.00" fill="#000000"> &#160;&#160;&#160;&#160;&#160;&#160;character &#160;&#160;&#160;&#160;&#160;&#160;</text>
</g>
<!-- Last_DF__@__ID #4&#45;&#45;SimpleDF_1.csv__@__ID #4 -->
<g id="edge1" class="edge">
<title>Last_DF__@__ID #4&#45;&#45;SimpleDF_1.csv__@__ID #4</title>
<path fill="none" stroke="#000000" stroke-width="2" d="M545.1408,-98.8882C614.8935,-101.1389 730.7411,-104.877 800.343,-107.1228"/>
</g>
<!-- Last_DF__@__Another Var R -->
<g id="node14" class="node">
<title>Last_DF__@__Another Var R</title>
<polygon fill="#ffffff" stroke="#ffffff" points="568.6355,-57.6019 404.6101,-57.6019 404.6101,-16.3981 568.6355,-16.3981 568.6355,-57.6019"/>
<text text-anchor="middle" x="486.6228" y="-41.2" font-family="monospace" font-size="14.00" fill="#000000"> &#160;&#160;&#160;&#160;&#160;&#160;&#160;`Another Var R` &#160;&#160;&#160;&#160;&#160;&#160;&#160;</text>
<text text-anchor="middle" x="486.6228" y="-24.4" font-family="monospace" font-size="14.00" fill="#000000"> &#160;&#160;&#160;&#160;&#160;&#160;&#160;double; numeric &#160;&#160;&#160;&#160;&#160;&#160;&#160;</text>
</g>
<!-- SimpleDF_1.csv__@__Another Var Q -->
<g id="node18" class="node">
<title>SimpleDF_1.csv__@__Another Var Q</title>
<polygon fill="#ffffff" stroke="#ffffff" points="941.302,-69.6019 775.7376,-69.6019 775.7376,-28.3981 941.302,-28.3981 941.302,-69.6019"/>
<text text-anchor="middle" x="858.5198" y="-53.2" font-family="monospace" font-size="14.00" fill="#000000"> &#160;&#160;&#160;&#160;&#160;&#160;&#160;`Another Var Q` &#160;&#160;&#160;&#160;&#160;&#160;&#160;</text>
<text text-anchor="middle" x="858.5198" y="-36.4" font-family="monospace" font-size="14.00" fill="#000000"> &#160;&#160;&#160;&#160;&#160;&#160;&#160;double; numeric &#160;&#160;&#160;&#160;&#160;&#160;&#160;</text>
</g>
<!-- SimpleDF_2.tsv__@__ID #3 -->
<g id="node20" class="node">
<title>SimpleDF_2.tsv__@__ID #3</title>
<polygon fill="#ffffff" stroke="#ffffff" points="916.8049,-492.6019 800.2347,-492.6019 800.2347,-451.3981 916.8049,-451.3981 916.8049,-492.6019"/>
<text text-anchor="middle" x="858.5198" y="-476.2" font-family="monospace" font-size="14.00" fill="#000000"> &#160;&#160;&#160;&#160;&#160;`ID #3` &#160;&#160;&#160;&#160;&#160;</text>
<text text-anchor="middle" x="858.5198" y="-459.4" font-family="monospace" font-size="14.00" fill="#000000"> &#160;&#160;&#160;&#160;&#160;&#160;character &#160;&#160;&#160;&#160;&#160;&#160;</text>
</g>
<!-- SimpleDF_2.tsv__@__Another Var S -->
<g id="node21" class="node">
<title>SimpleDF_2.tsv__@__Another Var S</title>
<polygon fill="#ffffff" stroke="#ffffff" points="940.387,-432.6019 776.6526,-432.6019 776.6526,-391.3981 940.387,-391.3981 940.387,-432.6019"/>
<text text-anchor="middle" x="858.5198" y="-416.2" font-family="monospace" font-size="14.00" fill="#000000"> &#160;&#160;&#160;&#160;&#160;&#160;&#160;`Another Var S` &#160;&#160;&#160;&#160;&#160;&#160;&#160;</text>
<text text-anchor="middle" x="858.5198" y="-399.4" font-family="monospace" font-size="14.00" fill="#000000"> &#160;&#160;&#160;&#160;&#160;&#160;&#160;double; numeric &#160;&#160;&#160;&#160;&#160;&#160;&#160;</text>
</g>
</g>
</svg>
